Motion_sv05_j
version=1
nRows=5
nColumns=43
inDegrees=yes
endheader
time	pelvis_tilt	pelvis_list	pelvis_rotation	pelvis_tx	pelvis_ty	pelvis_tz	hip_flexion_r	hip_adduction_r	hip_rotation_r	knee_angle_r	ankle_angle_r	subtalar_angle_r	mtp_angle_r	hip_flexion_l	hip_adduction_l	hip_rotation_l	knee_angle_l	ankle_angle_l	subtalar_angle_l	mtp_angle_l	lumbar_extension	lumbar_bending	lumbar_rotation	neck_flexion	neck_lateral_bending	neck_rotation	arm_flex_r	arm_add_r	arm_rot_r	elbow_flex_r	pro_sup_r	wrist_flex_r	wrist_dev_r	hand_finger_flex_r	arm_flex_l	arm_add_l	arm_rot_l	elbow_flex_l	pro_sup_l	wrist_flex_l	wrist_dev_l	hand_finger_flex_l
      1.18500000	     -2.35506062	    -15.32912569	    -89.55690069	     -0.09345514	      0.96919969	      0.16820869	    -15.11165197	      1.37895513	     -8.88711804	     -8.42929829	     13.22773551	     12.44276613	     -1.96724377	    -16.71744550	    -11.00955582	    -21.23172522	     -6.22263542	      4.67835521	     36.18818006	      6.15238840	    -24.17506389	      6.78388748	      3.25335656	    -28.27845237	    -11.27640724	      1.85081224	    -18.23038947	    -39.89414152	    -68.47664797	     78.95097984	     95.62539100	     10.10347297	     -6.95983501	     -6.08714574	    -24.84741516	    -35.62506109	    -77.82569975	     81.19201477	     90.28991000	     -3.84288696	     -4.06279916	     -4.70632891
      1.18750000	     -2.36261116	    -15.47616477	    -89.56961242	     -0.09363258	      0.96929108	      0.16794531	    -15.22316894	      1.38766194	     -8.83576389	     -8.51015274	     13.24170977	     12.39562110	     -1.96722667	    -16.81728917	    -11.04047845	    -21.18683776	     -6.32587278	      4.68930126	     36.15971971	      6.16276021	    -24.35798260	      6.83555760	      3.28418286	    -28.51523489	    -11.25263611	      1.82018568	    -18.34071364	    -39.63553492	    -68.12708812	     79.24327793	     95.68503899	     10.05468843	     -7.05620287	     -6.05510533	    -24.99476226	    -35.07212481	    -77.57257897	     81.74613582	     90.35406448	     -3.70904934	     -4.18962783	     -4.54210641
      1.19000000	     -2.37581116	    -15.62763224	    -89.58521826	     -0.09382315	      0.96934929	      0.16736431	    -15.32917085	      1.41042877	     -8.77969481	     -8.54708136	     13.26085097	     12.35128589	     -1.96711205	    -16.91955402	    -11.07331880	    -21.16024767	     -6.38933152	      4.71993748	     36.12355573	      6.17656215	    -24.58590275	      6.91008955	      3.30427733	    -28.70225313	    -11.27887573	      1.79110416	    -18.45378066	    -39.44762514	    -67.70387151	     79.56937074	     95.73610558	      9.97305041	     -7.15179998	     -6.03107410	    -25.12116090	    -34.57353751	    -77.30243982	     82.20600585	     90.42764697	     -3.57446618	     -4.29301462	     -4.37172551
      1.19250000	     -2.40402067	    -15.80277373	    -89.60727815	     -0.09399860	      0.96945969	      0.16675351	    -15.46935382	      1.44120078	     -8.71314979	     -8.57606397	     13.27350253	     12.30565602	     -1.96862655	    -17.04499819	    -11.11344335	    -21.13957354	     -6.45079652	      4.75701494	     36.08042961	      6.19311826	    -24.84469278	      7.00842117	      3.32374228	    -28.87544620	    -11.36699475	      1.76436334	    -18.58581403	    -39.29665709	    -67.24699591	     79.90664518	     95.77705909	      9.84052166	     -7.23929444	     -6.01398449	    -25.24838823	    -34.06068762	    -77.04488576	     82.65008960	     90.51042371	     -3.43435461	     -4.40293528	     -4.18124552
      1.19500000	     -2.42730030	    -15.97488282	    -89.63090539	     -0.09418944	      0.96951059	      0.16605878	    -15.59554692	      1.47382327	     -8.65145370	     -8.58842103	     13.27756510	     12.26639357	     -1.97144949	    -17.16394660	    -11.15524298	    -21.12470384	     -6.50777984	      4.78812009	     36.04299035	      6.20843910	    -25.11085593	      7.11033557	      3.33991530	    -29.02040900	    -11.47310173	      1.74511699	    -18.71158271	    -39.17427319	    -66.79131746	     80.24420215	     95.79579789	      9.71554308	     -7.31156571	     -5.99591276	    -25.35768669	    -33.56254133	    -76.77380684	     83.04733256	     90.58690296	     -3.29310358	     -4.51090299	     -4.00131552
